<svg width="54" height="36" viewBox="0 0 54 36" fill="none" xmlns="http://www.w3.org/2000/svg">
<path d="M9.08 35.88C8.12 35.88 7.14667 35.7333 6.16 35.44C5.2 35.1733 4.30667 34.7467 3.48 34.16C2.68 33.6 2.05333 32.88 1.6 32C1.17333 31.2 0.866667 30.3467 0.68 29.44C0.52 28.5333 0.44 27.6267 0.44 26.72C0.44 26.5867 0.44 26.3467 0.44 26C0.466667 25.6267 0.506667 25.2267 0.56 24.8C0.613333 24.3467 0.68 23.9733 0.76 23.68C0.866667 23.36 0.986667 23.2 1.12 23.2C1.25333 23.2 1.33333 23.3733 1.36 23.72C1.41333 24.0667 1.45333 24.2933 1.48 24.4V25.24C1.48 25.3733 1.48 25.52 1.48 25.68C1.48 25.8133 1.49333 25.9467 1.52 26.08C1.65333 27.0933 1.89333 28.1333 2.24 29.2C2.61333 30.2667 3.10667 31.24 3.72 32.12C4.36 33.0267 5.12 33.7467 6 34.28C6.90667 34.84 7.96 35.12 9.16 35.12C10.4933 35.12 11.7733 34.7333 13 33.96C14.2533 33.2133 15.4267 32.2267 16.52 31C17.64 29.8 18.6533 28.48 19.56 27.04C20.4933 25.6 21.32 24.1867 22.04 22.8C22.76 21.4133 23.36 20.2 23.84 19.16C24.5333 17.5867 25.2133 15.9867 25.88 14.36C26.5467 12.7333 27.1067 11.1067 27.56 9.48C27 8.22667 26.3067 7 25.48 5.8C24.68 4.6 23.7067 3.61333 22.56 2.84C21.44 2.04 20.12 1.64 18.6 1.64C17.2933 1.64 16.1067 2 15.04 2.72C14 3.41333 13.16 4.32 12.52 5.44C12.28 5.86667 12.0933 6.32 11.96 6.8C11.8533 7.25333 11.7333 7.70667 11.6 8.16C11.5733 8.32 11.5333 8.48 11.48 8.64C11.4533 8.8 11.4 8.96 11.32 9.12C11.2933 9.17333 11.2533 9.25333 11.2 9.36C11.1467 9.44 11.08 9.48 11 9.48C10.8667 9.48 10.7733 9.34667 10.72 9.08C10.6933 8.81333 10.68 8.65333 10.68 8.6C10.68 8.06667 10.7867 7.54667 11 7.04C11.2133 6.53333 11.44 6.04 11.68 5.56C12.16 4.62667 12.8 3.76 13.6 2.96C14.4 2.16 15.3067 1.52 16.32 1.04C17.3333 0.533332 18.3733 0.279999 19.44 0.279999C20.8533 0.279999 22.1333 0.639999 23.28 1.36C24.4267 2.08 25.44 2.98667 26.32 4.08C27.2 5.17333 27.9333 6.29333 28.52 7.44C28.68 7.33333 28.88 7.18667 29.12 7C29.3867 6.81333 29.5867 6.72 29.72 6.72C29.8 6.72 29.88 6.76 29.96 6.84C30.0667 6.89333 30.12 6.96 30.12 7.04C30.12 7.41333 30.0533 7.85333 29.92 8.36C29.8133 8.86667 29.6933 9.30667 29.56 9.68C29.6133 9.78667 29.6667 9.90667 29.72 10.04C29.7733 10.1467 29.8133 10.2667 29.84 10.4C30.7467 12.5867 31.64 14.7867 32.52 17C33.4 19.1867 34.2933 21.3867 35.2 23.6C35.52 24.3467 35.84 25.0933 36.16 25.84C36.5067 26.5867 36.8667 27.3067 37.24 28C37.56 26.08 37.9867 24.1733 38.52 22.28C39.08 20.3867 39.6667 18.5067 40.28 16.64C40.5733 15.8133 40.9467 14.76 41.4 13.48C41.8533 12.1733 42.3867 10.8133 43 9.4C43.64 7.98667 44.3467 6.66667 45.12 5.44C45.8933 4.18667 46.7467 3.17333 47.68 2.4C48.64 1.6 49.6667 1.2 50.76 1.2C51.16 1.2 51.6 1.28 52.08 1.44C52.5867 1.57333 52.9467 1.81333 53.16 2.16C53.2133 2.21333 53.2533 2.28 53.28 2.36C53.3333 2.44 53.36 2.52 53.36 2.6C53.36 2.68 53.3333 2.72 53.28 2.72C53.04 2.61333 52.8267 2.44 52.64 2.2C52.48 1.93333 52.16 1.8 51.68 1.8C51.1733 1.8 50.64 1.96 50.08 2.28C49.52 2.6 49 2.98666 48.52 3.44C48.0667 3.89333 47.6933 4.32 47.4 4.72C46.92 5.38666 46.3733 6.34667 45.76 7.6C45.1733 8.85333 44.56 10.28 43.92 11.88C43.3067 13.4533 42.7067 15.1067 42.12 16.84C41.56 18.5733 41.04 20.28 40.56 21.96C40.1067 23.6133 39.7333 25.1467 39.44 26.56C39.1733 27.9467 39.04 29.0933 39.04 30C39.04 30.16 39.04 30.32 39.04 30.48C39.0667 30.64 39.0933 30.7867 39.12 30.92C39.3333 31.32 39.6933 31.72 40.2 32.12C40.7067 32.5467 41.2533 32.76 41.84 32.76C42.4 32.76 42.84 32.5867 43.16 32.24C43.48 31.92 43.76 31.5867 44 31.24C44.24 30.92 44.5067 30.76 44.8 30.76C45.1733 30.76 45.36 30.9467 45.36 31.32C45.36 31.88 45.0933 32.3333 44.56 32.68C44.0267 33.0267 43.4133 33.28 42.72 33.44C42.0533 33.6 41.52 33.68 41.12 33.68C40.6133 33.68 40.0133 33.5867 39.32 33.4C38.6533 33.24 37.9067 32.68 37.08 31.72C36.2267 30.7067 35.4933 29.4933 34.88 28.08C34.2667 26.6667 33.72 25.3467 33.24 24.12C32.4667 22.1467 31.7067 20.1733 30.96 18.2C30.2133 16.2267 29.4533 14.2533 28.68 12.28C27.6133 15.1067 26.4533 17.9067 25.2 20.68C24.56 22.12 23.8 23.6 22.92 25.12C22.04 26.6133 21.0533 28.04 19.96 29.4C18.8667 30.76 17.6533 31.96 16.32 33C14.9867 34.0667 13.5333 34.88 11.96 35.44C11.5067 35.6 11.0267 35.7067 10.52 35.76C10.04 35.84 9.56 35.88 9.08 35.88Z" fill="#FFFBFB"/>
</svg>
